HIERARCHY
ROOT root
{
	OFFSET	0	13.1	24.9
	CHANNELS 6  Xposition Yposition Zposition Xrotation Yrotation Zrotation
	JOINT spine_1
	{
		OFFSET	0	9.99999	0
		CHANNELS 3  Xrotation Yrotation Zrotation
		JOINT spine_2
		{
			OFFSET	0	112	-10
			CHANNELS 3  Xrotation Yrotation Zrotation
			JOINT spine_3
			{
				OFFSET	0	206.5	19.3
				CHANNELS 3  Xrotation Yrotation Zrotation
				JOINT spine_4
				{
					OFFSET	0	110.4	14.6
					CHANNELS 3  Xrotation Yrotation Zrotation
					JOINT neck_1
					{
						OFFSET	0	71.8	-50.3
						CHANNELS 3  Xrotation Yrotation Zrotation
						JOINT neck_2
						{
							OFFSET	0	86.2	-25.8
							CHANNELS 3  Xrotation Yrotation Zrotation
							JOINT head_ee
							{
								OFFSET	0	179.8	-8.7
								CHANNELS 3  Xrotation Yrotation Zrotation
								End Site
								{
									OFFSET	1	0	0
								}
							}
						}
					}
					JOINT left_clavicle
					{
						OFFSET	-43.2	22.4	-70.8
						CHANNELS 3  Xrotation Yrotation Zrotation
						JOINT left_shoulder
						{
							OFFSET	-93.9	-5.79999	48.7
							CHANNELS 3  Xrotation Yrotation Zrotation
							JOINT left_elbow
							{
								OFFSET	-291.4	-30.8	15.2
								CHANNELS 3  Xrotation Yrotation Zrotation
								JOINT left_lowarm_twist
								{
									OFFSET	-110.7	-3.89999	13.6
									CHANNELS 3  Xrotation Yrotation Zrotation
									JOINT left_hand
									{
										OFFSET	-110.7	-3.89999	13.6
										CHANNELS 3  Xrotation Yrotation Zrotation
										JOINT left_ee
										{
											OFFSET	-80.8	-5.10001	12.1
											CHANNELS 3  Xrotation Yrotation Zrotation
											End Site
											{
												OFFSET	1	0	0
											}
										}
									}
								}
							}
						}
					}
					JOINT right_clavicle
					{
						OFFSET	43.2	22.4	-70.8
						CHANNELS 3  Xrotation Yrotation Zrotation
						JOINT right_shoulder
						{
							OFFSET	93.9	-5.79999	48.7
							CHANNELS 3  Xrotation Yrotation Zrotation
							JOINT right_elbow
							{
								OFFSET	291.4	-30.8	15.2
								CHANNELS 3  Xrotation Yrotation Zrotation
								JOINT right_lowarm_twist
								{
									OFFSET	110.7	-3.89999	13.6
									CHANNELS 3  Xrotation Yrotation Zrotation
									JOINT right_hand
									{
										OFFSET	110.7	-3.89999	13.6
										CHANNELS 3  Xrotation Yrotation Zrotation
										JOINT right_ee
										{
											OFFSET	80.8	-5.10001	12.1
											CHANNELS 3  Xrotation Yrotation Zrotation
											End Site
											{
												OFFSET	1	0	0
											}
										}
									}
								}
							}
						}
					}
				}
			}
		}
	}
	JOINT left_hip
	{
		OFFSET	-82.8	-127.5	0.300001
		CHANNELS 3  Xrotation Yrotation Zrotation
		JOINT left_knee
		{
			OFFSET	-28.2	-396.7	2.2
			CHANNELS 3  Xrotation Yrotation Zrotation
			JOINT left_ankle
			{
				OFFSET	-11.7	-411.3	35.4
				CHANNELS 3  Xrotation Yrotation Zrotation
				JOINT left_toes
				{
					OFFSET	0	-60	-88.6
					CHANNELS 3  Xrotation Yrotation Zrotation
					JOINT left_foot_ee
					{
						OFFSET	-22.5	-16.5	-42.2
						CHANNELS 3  Xrotation Yrotation Zrotation
						End Site
						{
							OFFSET	1	0	0
						}
					}
				}
			}
		}
	}
	JOINT right_hip
	{
		OFFSET	82.8	-127.5	0.300001
		CHANNELS 3  Xrotation Yrotation Zrotation
		JOINT right_knee
		{
			OFFSET	28.2	-396.7	2.2
			CHANNELS 3  Xrotation Yrotation Zrotation
			JOINT right_ankle
			{
				OFFSET	11.7	-411.3	35.4
				CHANNELS 3  Xrotation Yrotation Zrotation
				JOINT right_toes
				{
					OFFSET	0	-60	-88.6
					CHANNELS 3  Xrotation Yrotation Zrotation
					JOINT right_foot_ee
					{
						OFFSET	22.5	-16.5	-42.2
						CHANNELS 3  Xrotation Yrotation Zrotation
						End Site
						{
							OFFSET	1	0	0
						}
					}
				}
			}
		}
	}
}
MOTION
Frames: 10
Frame Time: 0.02
1372.05 701.618 -1475.22 -14.309927878 20.4267953626 -0.590582293426 4.65662 -0.107733 0.935806 4.65709 -0.16706 0.927055 4.65403 -0.286332 0.897418 4.65294 -0.141014 0.931372 -7.82423 16.7709 2.9306 -7.89869 29.2821 6.58994 -0.0 0.0 -0.0 1.39358 11.109 3.67911 -4.40024 -26.967 66.2673 1.46844 -36.0308 0.477585 -70.0191 -6.54846 5.30243 -7.34282 24.7551 -34.1726 -0.0 0.0 -0.0 8.01509 17.0266 -15.2113 -21.7564 5.03167 -74.4183 0.324094 9.121 -0.0258512 72.4748 3.00113 8.12999 0.203798 22.9644 8.40467 0.0 0.0 0.0 7.13646 4.68772 18.4679 -14.2131 0.319679 2.15216 40.754 24.1244 -5.21145 -8.16339 0.0 0.0 -0.0 0.0 -0.0 46.838 19.6064 -6.57309 -9.6548 -0.275526 -1.45434 -6.27618 -0.294307 -0.940262 0.621436 -0.0 -0.0 0.0 0.0 0.0 
1353.58621496 702.469 -1501.71528696 -13.9003602621 21.8618403746 -0.372090295482 4.59886 -0.149251 0.926358 4.59932 -0.207893 0.914985 4.59566 -0.326146 0.879801 4.59463 -0.183111 0.920264 -7.41394 16.6668 4.25875 -7.42186 28.0688 7.76185 -0.0 0.0 -0.0 1.09994 11.778 3.24111 -6.03255 -26.1652 67.8826 1.28087 -32.3938 0.372065 -70.8066 -6.64901 5.30877 -7.26705 24.6045 -33.7827 -0.0 0.0 -0.0 7.50227 12.3218 -14.3572 -20.9912 6.76357 -74.0696 0.373403 10.4799 -0.0342451 71.6781 2.91633 8.07288 0.471177 25.0184 7.52252 0.0 0.0 0.0 4.89527 6.35025 18.0721 -15.0574 0.321757 2.2817 36.9802 22.3584 -4.79511 -6.80244 0.0 0.0 -0.0 0.0 -0.0 46.5903 20.0017 -7.00191 -12.6969 -0.311158 -1.91971 -9.0072 2.37039 -1.36629 -0.558076 0.0 0.0 0.0 0.0 0.0 
1353.86729316 702.469 -1501.90896328 -13.8429676712 21.2738929553 -0.528214694825 4.59886 -0.149251 0.926358 4.59932 -0.207893 0.914985 4.59566 -0.326146 0.879801 4.59463 -0.183111 0.920264 -7.41394 16.6668 4.25875 -7.42186 28.0688 7.76185 -0.0 0.0 -0.0 1.09994 11.778 3.24111 -6.03255 -26.1652 67.8826 1.28087 -32.3938 0.372065 -70.8066 -6.64901 5.30877 -7.26705 24.6045 -33.7827 -0.0 0.0 -0.0 7.50227 12.3218 -14.3572 -20.9912 6.76357 -74.0696 0.373403 10.4799 -0.0342451 71.6781 2.91633 8.07288 0.471177 25.0184 7.52252 0.0 0.0 0.0 4.89527 6.35025 18.0721 -15.0574 0.321757 2.2817 36.9802 22.3584 -4.79511 -6.80244 0.0 0.0 -0.0 0.0 -0.0 46.5903 20.0017 -7.00191 -12.6969 -0.311158 -1.91971 -9.0072 2.37039 -1.36629 -0.558076 0.0 0.0 0.0 0.0 0.0 
1354.12602029 702.469 -1502.08340523 -13.7921984752 20.7362929005 -0.669848068086 4.59886 -0.149251 0.926358 4.59932 -0.207893 0.914985 4.59566 -0.326146 0.879801 4.59463 -0.183111 0.920264 -7.41394 16.6668 4.25875 -7.42186 28.0688 7.76185 -0.0 0.0 -0.0 1.09994 11.778 3.24111 -6.03255 -26.1652 67.8826 1.28087 -32.3938 0.372065 -70.8066 -6.64901 5.30877 -7.26705 24.6045 -33.7827 -0.0 0.0 -0.0 7.50227 12.3218 -14.3572 -20.9912 6.76357 -74.0696 0.373403 10.4799 -0.0342451 71.6781 2.91633 8.07288 0.471177 25.0184 7.52252 0.0 0.0 0.0 4.89527 6.35025 18.0721 -15.0574 0.321757 2.2817 36.9802 22.3584 -4.79511 -6.80244 0.0 0.0 -0.0 0.0 -0.0 46.5903 20.0017 -7.00191 -12.6969 -0.311158 -1.91971 -9.0072 2.37039 -1.36629 -0.558076 0.0 0.0 0.0 0.0 0.0 
1319.77268217 701.462 -1537.89467965 -12.7127654417 22.9956517505 -0.967189820488 4.24185 -0.127136 0.918242 4.2423 -0.185306 0.908293 4.23907 -0.308321 0.874229 4.23804 -0.166389 0.911947 -9.0605 16.6266 2.63093 -9.26186 29.4355 6.59525 -0.0 0.0 -0.0 1.00708 10.2586 2.94364 -9.62264 -24.7065 70.7084 1.176 -30.2221 0.317563 -71.2411 -6.7045 5.31167 -6.96162 25.9122 -30.3701 -0.0 0.0 -0.0 6.41308 7.07453 -12.27 -18.6799 8.46824 -73.6726 0.570251 15.7744 -0.0789995 71.6328 2.91153 8.06959 0.189387 23.9134 8.90046 0.0 0.0 0.0 3.2 8.47964 18.0371 -18.3377 0.311718 2.78483 34.1406 23.9557 -4.5419 -3.91349 0.0 0.0 -0.0 0.0 -0.0 46.8906 21.124 -7.65071 -21.2075 -0.279332 -3.22392 -5.19872 6.11002 -0.7952 -0.640057 0.0 0.0 0.0 0.0 0.0 
1320.64698656 701.462 -1538.61371923 -12.640143063 22.220323974 -1.15609752443 4.24185 -0.127136 0.918242 4.2423 -0.185306 0.908293 4.23907 -0.308321 0.874229 4.23804 -0.166389 0.911947 -9.0605 16.6266 2.63093 -9.26186 29.4355 6.59525 -0.0 0.0 -0.0 1.00708 10.2586 2.94364 -9.62264 -24.7065 70.7084 1.176 -30.2221 0.317563 -71.2411 -6.7045 5.31167 -6.96162 25.9122 -30.3701 -0.0 0.0 -0.0 6.41308 7.07453 -12.27 -18.6799 8.46824 -73.6726 0.570251 15.7744 -0.0789995 71.6328 2.91153 8.06959 0.189387 23.9134 8.90046 0.0 0.0 0.0 3.2 8.47964 18.0371 -18.3377 0.311718 2.78483 34.1406 23.9557 -4.5419 -3.91349 0.0 0.0 -0.0 0.0 -0.0 46.8906 21.124 -7.65071 -21.2075 -0.279332 -3.22392 -5.19872 6.11002 -0.7952 -0.640057 0.0 0.0 0.0 0.0 0.0 
1290.78889301 714.575 -1569.68404515 -11.7874105351 25.9261916524 -0.804585822798 4.05279 0.00426787 0.914965 4.05325 -0.0539599 0.913383 4.05211 -0.181831 0.896727 4.05099 -0.0379342 0.914189 -12.9749 16.8767 4.56477 -13.5244 29.3062 9.59565 -0.0 0.0 -0.0 1.22311 6.96308 3.01688 -13.8161 -22.4602 73.1893 0.87617 -23.462 0.181944 -70.5335 -6.61413 5.30673 -7.09718 24.8533 -32.3327 -0.0 0.0 -0.0 6.82738 2.45542 -13.2314 -11.4909 9.79819 -72.3243 0.763388 20.7146 -0.139522 70.3649 2.77832 7.97619 -0.11403 22.2749 10.2225 0.0 0.0 0.0 5.08266 10.423 16.1184 -22.4065 0.259295 3.40681 28.049 25.5571 -3.89148 -2.31558 0.0 0.0 -0.0 0.0 -0.0 46.0097 22.2471 -7.22542 -26.1694 -0.171625 -3.9775 -7.472 11.6669 -1.18345 -1.29762 0.0 0.0 0.0 0.0 0.0 
1293.29156499 714.575 -1571.78051082 -11.6440171357 24.4562479015 -1.1414457336 4.05279 0.00426787 0.914965 4.05325 -0.0539599 0.913383 4.05211 -0.181831 0.896727 4.05099 -0.0379342 0.914189 -12.9749 16.8767 4.56477 -13.5244 29.3062 9.59565 -0.0 0.0 -0.0 1.22311 6.96308 3.01688 -13.8161 -22.4602 73.1893 0.87617 -23.462 0.181944 -70.5335 -6.61413 5.30673 -7.09718 24.8533 -32.3327 -0.0 0.0 -0.0 6.82738 2.45542 -13.2314 -11.4909 9.79819 -72.3243 0.763388 20.7146 -0.139522 70.3649 2.77832 7.97619 -0.11403 22.2749 10.2225 0.0 0.0 0.0 5.08266 10.423 16.1184 -22.4065 0.259295 3.40681 28.049 25.5571 -3.89148 -2.31558 0.0 0.0 -0.0 0.0 -0.0 46.0097 22.2471 -7.22542 -26.1694 -0.171625 -3.9775 -7.472 11.6669 -1.18345 -1.29762 0.0 0.0 0.0 0.0 0.0 
1296.90968538 714.575 -1574.62199422 -11.4604900497 22.3835892247 -1.60310989098 4.05279 0.00426787 0.914965 4.05325 -0.0539599 0.913383 4.05211 -0.181831 0.896727 4.05099 -0.0379342 0.914189 -12.9749 16.8767 4.56477 -13.5244 29.3062 9.59565 -0.0 0.0 -0.0 1.22311 6.96308 3.01688 -13.8161 -22.4602 73.1893 0.87617 -23.462 0.181944 -70.5335 -6.61413 5.30673 -7.09718 24.8533 -32.3327 -0.0 0.0 -0.0 6.82738 2.45542 -13.2314 -11.4909 9.79819 -72.3243 0.763388 20.7146 -0.139522 70.3649 2.77832 7.97619 -0.11403 22.2749 10.2225 0.0 0.0 0.0 5.08266 10.423 16.1184 -22.4065 0.259295 3.40681 28.049 25.5571 -3.89148 -2.31558 0.0 0.0 -0.0 0.0 -0.0 46.0097 22.2471 -7.22542 -26.1694 -0.171625 -3.9775 -7.472 11.6669 -1.18345 -1.29762 0.0 0.0 0.0 0.0 0.0 
1285.36053047 719.982 -1588.89925737 -11.5066442545 23.3224010799 -1.55333861736 3.97412 0.0689771 1.02773 3.97471 0.00344384 1.03003 3.97443 -0.142776 1.0201 3.97298 0.0201127 1.02984 -14.2935 17.1946 5.35468 -14.9723 29.6554 10.8259 -0.0 0.0 -0.0 2.11449 5.92852 4.53765 -14.9583 -21.9374 74.046 0.632237 -17.3902 0.0966916 -70.4801 -6.60731 5.30631 -7.09676 25.4443 -31.7474 -0.0 0.0 -0.0 7.06496 0.0354448 -13.721 -9.25931 9.71255 -72.5258 0.820925 22.1296 -0.160538 71.0201 2.8469 8.02482 -0.2595 20.9012 10.622 0.0 0.0 0.0 6.1161 11.0539 15.4592 -23.7886 0.231454 3.61706 25.1073 25.5204 -3.53219 -2.02801 0.0 0.0 -0.0 0.0 -0.0 45.3529 22.8401 -7.1807 -26.6069 -0.159002 -4.04347 -5.83594 14.3428 -0.938771 -1.7691 0.0 0.0 0.0 0.0 0.0 
